<svg width="164" height="34" viewBox="0 0 164 34" fill="none" xmlns="http://www.w3.org/2000/svg">
  <path d="M63.789 24.227c.101.248.29.408.596.51.305.101.8.145 1.469.145v1.192H56.59v-1.192c.582 0 1.004-.03 1.25-.102.248-.073.423-.218.51-.436.087-.218.13-.582.13-1.09v-8.726c0-2.472-.886-3.709-2.646-3.709-.625 0-1.193.146-1.687.422-.494.277-1.047.727-1.658 1.324v10.572c0 .538.058.916.16 1.163.102.247.291.393.567.466.262.072.684.101 1.265.101v1.193H45v-1.193c.698 0 1.207-.043 1.527-.145.32-.102.523-.262.64-.509.102-.247.16-.625.16-1.163V12.303c0-.553-.073-.93-.204-1.105-.13-.175-.422-.277-.858-.277h-1.192V9.73l5.7-.902h1.57v2.4h.103c.843-.8 1.73-1.44 2.675-1.905.931-.466 2.022-.713 3.258-.713 1.672 0 2.967.465 3.883 1.41.916.946 1.381 2.371 1.381 4.29v8.755c0 .538.044.916.146 1.163zM69.49 24.3c-1.484-1.454-2.211-3.693-2.211-6.718 0-3.054.741-5.323 2.24-6.791 1.483-1.484 3.766-2.21 6.849-2.21 3.025 0 5.264.726 6.718 2.18 1.454 1.455 2.182 3.709 2.182 6.763 0 3.068-.728 5.337-2.196 6.791-1.469 1.454-3.723 2.181-6.777 2.181-3.068-.014-5.337-.741-6.806-2.195zm9.51-.828c.552-1.164.829-2.982.829-5.454 0-2.85-.276-4.93-.83-6.21-.552-1.28-1.482-1.919-2.762-1.919-1.265 0-2.167.64-2.72 1.905-.552 1.265-.828 3.214-.828 5.831 0 2.69.276 4.625.828 5.817.553 1.193 1.484 1.775 2.793 1.775 1.236 0 2.137-.582 2.69-1.745zM88.554 11.547c-.218-.538-.465-.888-.742-1.077-.276-.174-.741-.276-1.396-.276V9.002h9.293v1.192h-1.41c-.466 0-.684.175-.684.538 0 .175.029.32.073.437l3.853 9.801h.073l3.81-9.729c.044-.189.073-.334.073-.436 0-.407-.247-.61-.727-.61h-1.338V9.001h5.889v1.192c-.625 0-1.105.102-1.41.306-.32.203-.582.596-.8 1.178L97.076 26.06h-2.647l-5.875-14.513zM121.682 17.683h-10.863c.072 2.298.436 3.97 1.09 4.989.655 1.032 1.745 1.541 3.272 1.541 2.284 0 3.912-1.12 4.901-3.374l1.236.655c-.625 1.497-1.512 2.704-2.632 3.62-1.12.902-2.821 1.368-5.104 1.368-2.691 0-4.726-.742-6.108-2.24-1.382-1.483-2.065-3.708-2.065-6.66 0-2.982.698-5.221 2.109-6.719 1.41-1.498 3.461-2.254 6.18-2.254 5.323 0 7.998 2.923 7.998 8.755v.32h-.014zm-5.41-1.294c0-1.57-.073-2.821-.203-3.723-.131-.901-.393-1.585-.786-2.05-.392-.465-.93-.684-1.629-.684-.945 0-1.643.48-2.108 1.44-.465.96-.698 2.632-.727 5.032h5.453v-.015zM123.834 24.882c.727 0 1.25-.043 1.556-.145.32-.102.523-.262.61-.495.102-.232.146-.625.146-1.178V4.538c0-.582-.073-.96-.204-1.15-.131-.174-.421-.276-.858-.276h-1.192V1.92l5.846-.902h1.57v22.046c0 .538.044.917.146 1.164.102.247.291.407.582.509.29.102.756.145 1.381.145v1.193h-9.583v-1.193zM135.134 24.882c.727 0 1.25-.043 1.556-.145.32-.102.523-.262.61-.495.102-.232.146-.625.146-1.178V4.538c0-.582-.073-.96-.204-1.15-.131-.174-.421-.276-.858-.276h-1.192V1.92l5.846-.902h1.556v22.046c0 .538.044.917.145 1.164.102.247.291.407.582.509.291.102.756.145 1.382.145v1.193h-9.584v-1.193h.015zM164 9.002v1.192c-.625 0-1.105.117-1.44.364-.32.247-.654.785-1.003 1.629l-5.483 13.437c-.334.829-.581 1.44-.727 1.847-.61 1.498-1.119 2.66-1.541 3.475-.422.815-.96 1.484-1.614 1.993-.655.523-1.484.785-2.473.785-.988 0-1.846-.32-2.559-.945-.713-.626-1.076-1.396-1.076-2.284 0-.683.218-1.265.669-1.745.451-.48 1.018-.727 1.73-.727.684 0 1.222.204 1.615.611.392.407.596.93.596 1.556 0 .407-.102.756-.306 1.018-.203.262-.305.465-.305.582 0 .174.058.305.175.392.116.102.276.146.465.146.872 0 1.745-1.164 2.618-3.49l.756-2.036-6.254-15.153c-.189-.48-.363-.83-.523-1.018a1.14 1.14 0 00-.654-.378c-.277-.059-.728-.088-1.324-.088V8.973h9.656v1.192h-1.119c-.48 0-.728.218-.728.655 0 .072.044.276.146.61l3.272 8.799h.073l3.417-8.973a2.2 2.2 0 00.073-.436c0-.437-.247-.655-.727-.655h-1.193V8.973H164v.029zM29.976.276H3.024A3.033 3.033 0 000 3.3v26.952a3.033 3.033 0 003.024 3.024h26.952A3.033 3.033 0 0033 30.252V3.3A3.033 3.033 0 0029.976.276zM14.15 25.174c0 .29-.302.454-.504.265l-2.356-1.865a.34.34 0 00-.403 0L8.53 25.439c-.201.189-.504.025-.504-.265V8.63c0-.189.139-.34.303-.34h5.506c.164 0 .302.151.302.34v16.544h.013zm10.408.328H19.77c-.366 0-.668-.29-.668-.63l.025-10.887c0-1.373-.214-2.356-.63-2.936-.416-.58-1.033-.87-1.84-.87-.201 0-.39.013-.567.051-.214.038-.403-.113-.403-.315 0-.277-.012-.567-.012-.844 0-.113.025-.189.176-.29.945-.491 2.142-.743 3.579-.743 3.817 0 5.783 1.978 5.783 5.947v10.887c0 .34-.29.63-.655.63z" fill="#FEFCF8"/>
</svg>

